{"title":"The Lennon Report 2016 WEB-DL XviD MP3-FGT","uid":15979722,"size":1126190764,"categoryP":"video","categoryS":"movies","magnet":"?xt=urn:btih:62318cd57520eb91b0366ba0dd3981083d390eea&amp;dn=The+Lennon+Report+2016+WEB-DL+XviD+MP3-FGT&amp;tr=udp%3A%2F%2Ftracker.leechers-paradise.org%3A6969&amp;tr=udp%3A%2F%2Fzer0day.ch%3A1337&amp;tr=udp%3A%2F%2Fopen.demonii.com%3A1337&amp;tr=udp%3A%2F%2Ftracker.coppersurfer.tk%3A6969&amp;tr=udp%3A%2F%2Fexodus.desync.com%3A6969","seeders":1,"leechers":6,"uploader":"PirateNeon2","files":1,"time":1475883717,"description":"Plot:\tThe unheard true story of the moments after John Lennon was shot as seen through the eyes of those who lived it. Alan Weiss| an ambitious young news producer| finds\r\nhimself in a position to break the biggest story of the year following a violent motorcycle accident. The emergency department at Roosevelt Hospital discovers a John\r\nDoe shooting victim is the worlds biggest rock star and struggles to keep the news quiet while working to save his life.\r\n\r\nVideo\r\nID                                       : 0\r\nFormat                                   : MPEG-4 Visual\r\nFormat profile                           :   \r\nFormat settings, BVOP                    : No\r\nFormat settings, QPel                    : No\r\nFormat settings, GMC                     : No warppoints\r\nFormat settings, Matrix                  : Default (H.263)\r\nCodec ID                                 : XVID\r\nCodec ID/Hint                            : XviD\r\nDuration                                 : 1h 24mn\r\nBit rate                                 : 1 563 Kbps\r\nWidth                                    : 720 pixels\r\nHeight                                   : 384 pixels\r\nDisplay aspect ratio                     : 1.85:1\r\nFrame rate                               : 23.976 fps\r\nColor space                              : YUV\r\nChroma subsampling                       : 4:2:0\r\nBit depth                                : 8 bits\r\nScan type                                : Progressive\r\nCompression mode                         : Lossy\r\nBits/(Pixel*Frame)                       : 0.236\r\nStream size                              : 950 MiB (88%)\r\nWriting library                          : Lavc57.16.101\r\n\r\nAudio\r\nID                                       : 1\r\nFormat                                   : MPEG Audio\r\nFormat version                           : Version 1\r\nFormat profile                           : Layer 3\r\nMode                                     : Joint stereo\r\nMode extension                           : MS Stereo\r\nCodec ID                                 : 55\r\nCodec ID/Hint                            : MP3\r\nDuration                                 : 1h 24mn\r\nBit rate mode                            : Constant\r\nBit rate                                 : 192 Kbps\r\nChannel(s)                               : 2 channels\r\nSampling rate                            : 48.0 KHz\r\nCompression mode                         : Lossy\r\nStream size                              : 117 MiB (11%)\r\nAlignment                                : Aligned on interleaves\r\nInterleave, duration                     : 24 ms (0.58 video frame)\r\nInterleave, preload duration             : 504 ms\r\nWriting library                          : LAME3.99.5","torrent":{"xt":"urn:btih:62318cd57520eb91b0366ba0dd3981083d390eea","amp;dn":"The+Lennon+Report+2016+WEB-DL+XviD+MP3-FGT","amp;tr":["udp%3A%2F%2Ftracker.leechers-paradise.org%3A6969","udp%3A%2F%2Fzer0day.ch%3A1337","udp%3A%2F%2Fopen.demonii.com%3A1337","udp%3A%2F%2Ftracker.coppersurfer.tk%3A6969","udp%3A%2F%2Fexodus.desync.com%3A6969"],"infoHash":"62318cd57520eb91b0366ba0dd3981083d390eea","infoHashBuffer":{"type":"Buffer","data":[98,49,140,213,117,32,235,145,176,54,107,160,221,57,129,8,61,57,14,234]},"announce":[],"urlList":[]}}